<svg width="43" height="40" viewBox="0 0 43 40" fill="none" xmlns="http://www.w3.org/2000/svg">
<path d="M36.687 0H6.39797C4.72419 0 3.11897 0.664907 1.93542 1.84845C0.751882 3.03199 0.0869751 4.63722 0.0869751 6.311V26.505C0.0869751 27.3338 0.250214 28.1544 0.567371 28.9201C0.884529 29.6858 1.34939 30.3815 1.93542 30.9676C2.52145 31.5536 3.21717 32.0184 3.98286 32.3356C4.74855 32.6528 5.5692 32.816 6.39797 32.816H20.281V36.6H16.495C16.1603 36.6 15.8393 36.733 15.6026 36.9696C15.3659 37.2063 15.233 37.5273 15.233 37.862C15.233 38.1967 15.3659 38.5177 15.6026 38.7544C15.8393 38.991 16.1603 39.124 16.495 39.124H26.595C26.9297 39.124 27.2507 38.991 27.4873 38.7544C27.724 38.5177 27.857 38.1967 27.857 37.862C27.857 37.5273 27.724 37.2063 27.4873 36.9696C27.2507 36.733 26.9297 36.6 26.595 36.6H22.806V32.816H36.687C38.3608 32.816 39.966 32.1511 41.1495 30.9676C42.3331 29.784 42.998 28.1788 42.998 26.505V6.311C42.998 4.63722 42.3331 3.03199 41.1495 1.84845C39.966 0.664907 38.3608 0 36.687 0ZM40.473 26.505C40.4731 27.0023 40.3753 27.4947 40.1851 27.9541C39.9949 28.4136 39.716 28.8311 39.3644 29.1828C39.0129 29.5344 38.5955 29.8134 38.136 30.0037C37.6766 30.194 37.1842 30.292 36.687 30.292H6.39797C5.90079 30.292 5.40847 30.1941 4.94914 30.0038C4.4898 29.8135 4.07243 29.5347 3.72087 29.1831C3.36931 28.8315 3.09043 28.4142 2.90017 27.9548C2.7099 27.4955 2.61198 27.0032 2.61198 26.506V6.311C2.61184 5.81373 2.70967 5.32131 2.89988 4.86185C3.09009 4.4024 3.36894 3.98492 3.72052 3.63325C4.07209 3.28158 4.4895 3.00261 4.9489 2.81229C5.40831 2.62196 5.90071 2.524 6.39797 2.524H36.687C37.6911 2.524 38.6541 2.92288 39.3641 3.63289C40.0741 4.34291 40.473 5.30589 40.473 6.31V26.505ZM26.592 27.767C26.592 28.1017 26.459 28.4227 26.2223 28.6594C25.9857 28.896 25.6647 29.029 25.33 29.029H17.757C17.4223 29.029 17.1013 28.896 16.8646 28.6594C16.6279 28.4227 16.495 28.1017 16.495 27.767C16.495 27.4323 16.6279 27.1113 16.8646 26.8746C17.1013 26.638 17.4223 26.505 17.757 26.505H25.33C25.6647 26.505 25.9857 26.638 26.2223 26.8746C26.459 27.1113 26.592 27.4323 26.592 27.767Z" fill="#999999"/>
</svg>
