<svg width="30" height="55" viewBox="0 0 30 55" fill="none" xmlns="http://www.w3.org/2000/svg">
<path d="M23.747 0.249023H5.747C4.22274 0.252199 2.7619 0.859527 1.68464 1.93791C0.607388 3.01629 0.00158475 4.47776 0 6.00202V48.58C0.00158831 50.1051 0.608111 51.5672 1.68648 52.6455C2.76484 53.7239 4.22696 54.3304 5.752 54.332H23.752C25.2771 54.3304 26.7394 53.7239 27.8179 52.6456C28.8964 51.5673 29.5031 50.1052 29.505 48.58V6.00202C29.5034 4.47585 28.8961 3.01272 27.8165 1.93403C26.7368 0.855331 25.2732 0.249288 23.747 0.249023ZM27.041 48.58C27.0394 49.4532 26.6919 50.2901 26.0745 50.9075C25.4571 51.5249 24.6201 51.8724 23.747 51.874H5.747C4.87386 51.8724 4.03694 51.5249 3.41954 50.9075C2.80214 50.2901 2.45459 49.4532 2.453 48.58V6.00202C2.45432 5.12785 2.80245 4.28992 3.42096 3.67216C4.03947 3.0544 4.87782 2.70729 5.752 2.70702H23.752C24.6253 2.70861 25.4624 3.0563 26.0798 3.67392C26.6972 4.29154 27.0447 5.12871 27.046 6.00202L27.041 48.58Z" fill="#999999"/>
</svg>
