<svg width="84" height="74" viewBox="0 0 84 74" fill="none" xmlns="http://www.w3.org/2000/svg">
<path d="M80.504 10.8389L29.693 0.085941C28.6567 -0.129943 27.577 0.0730034 26.6899 0.650459C25.8027 1.22791 25.1801 2.13296 24.958 3.16794L23.993 9.36794L82.621 21.7749L83.586 15.5749C83.8021 14.5385 83.5993 13.4586 83.0219 12.5712C82.4444 11.6838 81.5392 11.061 80.504 10.8389Z" fill="#999999"/>
<path d="M59.137 23.0939C58.8482 22.0651 58.1641 21.1924 57.234 20.6662C56.304 20.1401 55.2035 20.0034 54.173 20.2859L44.527 22.9639L21.788 18.1509L19.288 29.9669L3.66096 34.3039C2.63241 34.5927 1.7599 35.2767 1.23397 36.2066C0.70804 37.1364 0.571425 38.2367 0.853959 39.2669L9.65996 70.9989C9.94892 72.0276 10.6331 72.9001 11.5632 73.426C12.4932 73.9519 13.5936 74.0885 14.624 73.8059L65.136 59.7879C66.1646 59.499 67.0371 58.8148 67.563 57.8847C68.0889 56.9547 68.2255 55.8543 67.943 54.8239L66.431 49.3769L72.096 50.5769C73.1321 50.7931 74.2118 50.5904 75.099 50.0131C75.9862 49.4358 76.6089 48.5309 76.831 47.4959L80.415 30.5589L60.008 26.2399L59.137 23.0939ZM64.97 39.2209L66.219 33.3209C66.3104 32.8952 66.5666 32.5229 66.9316 32.2854C67.2965 32.0478 67.7406 31.9643 68.167 32.0529L74.067 33.3029C74.4927 33.3944 74.865 33.6506 75.1025 34.0155C75.3401 34.3805 75.4236 34.8246 75.335 35.2509L74.086 41.1509C73.9945 41.5767 73.7383 41.9489 73.3734 42.1865C73.0084 42.424 72.5643 42.5076 72.138 42.4189L66.238 41.1699C65.812 41.0785 65.4396 40.8221 65.202 40.457C64.9644 40.0918 64.881 39.6474 64.97 39.2209ZM4.53996 37.4709L18.519 33.5929L51.501 24.4399L55.05 23.4539C55.1129 23.4368 55.1778 23.428 55.243 23.4279C55.4062 23.4291 55.5648 23.4827 55.6954 23.5808C55.8259 23.6789 55.9215 23.8164 55.968 23.9729L56.385 25.4729L57.691 30.1729L5.74396 44.5929L4.02196 38.3929C3.97062 38.202 3.99609 37.9986 4.09291 37.8263C4.18974 37.654 4.35022 37.5264 4.53996 37.4709ZM64.775 55.7039C64.8246 55.8944 64.7981 56.0967 64.7013 56.268C64.6044 56.4393 64.4447 56.5662 64.256 56.6219L13.745 70.6389C13.6821 70.6565 13.6172 70.6655 13.552 70.6659C13.3887 70.6646 13.2302 70.6109 13.0997 70.5128C12.9692 70.4147 12.8736 70.2774 12.827 70.1209L7.69196 51.6109L59.638 37.1949L62.808 48.6109L64.775 55.7039Z" fill="#999999"/>
<path d="M21.907 56.9699C21.7893 56.5504 21.5104 56.1945 21.1312 55.9799C20.7519 55.7654 20.3032 55.7097 19.883 55.8249L13.983 57.4629C13.5635 57.5806 13.2076 57.8595 12.9932 58.2388C12.7788 58.6181 12.7234 59.0668 12.839 59.4869L14.476 65.3869C14.5936 65.8064 14.8726 66.1623 15.2518 66.3767C15.6311 66.591 16.0799 66.6465 16.5 66.5309L22.4 64.8939C22.8195 64.7763 23.1754 64.4974 23.39 64.1181C23.6045 63.7389 23.6602 63.2901 23.545 62.8699L21.907 56.9699Z" fill="#999999"/>
</svg>
