<svg width="74" height="74" viewBox="0 0 74 74" fill="none" xmlns="http://www.w3.org/2000/svg">
<path d="M53.656 39.859C49.7145 39.8588 45.8615 38.6898 42.5844 36.4999C39.3072 34.31 36.753 31.1975 35.2448 27.556C33.7365 23.9145 33.342 19.9075 34.111 16.0418C34.88 12.176 36.778 8.62512 39.565 5.83805C42.3521 3.05099 45.903 1.15296 49.7688 0.383964C53.6345 -0.385032 57.6415 0.00954401 61.283 1.5178C64.9245 3.02605 68.037 5.58025 70.2269 8.8574C72.4168 12.1346 73.5858 15.9875 73.586 19.929C73.5799 25.2129 71.4782 30.2786 67.7419 34.0149C64.0056 37.7512 58.9399 39.8529 53.656 39.859ZM53.656 3.06599C50.3208 3.06618 47.0606 4.05535 44.2877 5.9084C41.5147 7.76145 39.3535 10.3952 38.0773 13.4765C36.8011 16.5578 36.4673 19.9484 37.1181 23.2194C37.7689 26.4904 39.375 29.495 41.7334 31.8533C44.0918 34.2115 47.0965 35.8175 50.3675 36.468C53.6386 37.1186 57.0291 36.7846 60.1104 35.5083C63.1917 34.2319 65.8252 32.0705 67.6781 29.2975C69.531 26.5244 70.52 23.2641 70.52 19.929C70.5147 15.4581 68.7362 11.1718 65.5747 8.01054C62.4132 4.84923 58.1269 3.07101 53.656 3.06599Z" fill="#999999"/>
<path d="M50.591 27.595C50.1845 27.5943 49.7946 27.4334 49.506 27.147L43.374 21.015C43.0865 20.7275 42.925 20.3376 42.925 19.931C42.925 19.5244 43.0865 19.1345 43.374 18.847C43.6615 18.5595 44.0514 18.398 44.458 18.398C44.8646 18.398 45.2545 18.5595 45.542 18.847L50.515 23.82L60.166 12.789C60.434 12.4832 60.8125 12.2964 61.2182 12.2697C61.624 12.243 62.0237 12.3785 62.3295 12.6465C62.6353 12.9145 62.8221 13.293 62.8488 13.6987C62.8755 14.1045 62.74 14.5042 62.472 14.81L51.74 27.074C51.6024 27.2319 51.4336 27.3596 51.2443 27.4492C51.0551 27.5389 50.8493 27.5885 50.64 27.595H50.588H50.591Z" fill="#999999"/>
<path d="M59.788 52.123H19.929C19.575 52.1222 19.2323 51.999 18.9589 51.7743C18.6855 51.5495 18.4982 51.2371 18.429 50.89L12.295 20.23C12.2499 20.0076 12.2548 19.778 12.3094 19.5577C12.3641 19.3375 12.467 19.1321 12.6108 18.9566C12.7545 18.781 12.9356 18.6396 13.1407 18.5427C13.3459 18.4457 13.5701 18.3956 13.797 18.396H26.064C26.2653 18.396 26.4646 18.4357 26.6506 18.5127C26.8366 18.5897 27.0056 18.7027 27.148 18.845C27.2903 18.9874 27.4032 19.1564 27.4803 19.3423C27.5573 19.5283 27.597 19.7277 27.597 19.929C27.597 20.1303 27.5573 20.3297 27.4803 20.5157C27.4032 20.7016 27.2903 20.8706 27.148 21.013C27.0056 21.1553 26.8366 21.2683 26.6506 21.3453C26.4646 21.4223 26.2653 21.462 26.064 21.462H15.664L21.183 49.057H58.531L59.38 44.81C59.4646 44.4149 59.7001 44.0685 60.0362 43.8444C60.3724 43.6203 60.7827 43.5362 61.18 43.61C61.5774 43.6904 61.9267 43.9249 62.1516 44.2622C62.3765 44.5996 62.4586 45.0123 62.38 45.41L61.285 50.889C61.215 51.2353 61.028 51.5469 60.7554 51.7716C60.4828 51.9963 60.1412 52.1204 59.788 52.123Z" fill="#999999"/>
<path d="M19.926 52.128C19.572 52.1274 19.2292 52.0043 18.9557 51.7795C18.6823 51.5547 18.4951 51.2422 18.426 50.895L10.826 12.895C10.616 11.8529 10.0523 10.9154 9.23047 10.2411C8.40861 9.56689 7.37903 9.19732 6.31599 9.19499L1.53599 9.19799C1.12888 9.19879 0.738132 9.03783 0.449701 8.75052C0.16127 8.46321 -0.00121557 8.0731 -0.00201122 7.66599C-0.00280687 7.25888 0.158153 6.86813 0.445459 6.5797C0.732764 6.29127 1.12288 6.12879 1.52999 6.12799H6.30699H6.31599C8.08739 6.13159 9.80317 6.74694 11.1731 7.86996C12.543 8.99297 13.483 10.5547 13.834 12.291L21.434 50.291C21.4736 50.488 21.474 50.6909 21.4351 50.888C21.3962 51.0852 21.3188 51.2727 21.2074 51.4399C21.0959 51.6071 20.9526 51.7507 20.7855 51.8624C20.6185 51.9741 20.4311 52.0518 20.234 52.091C20.1354 52.112 20.0348 52.1224 19.934 52.122L19.926 52.128Z" fill="#999999"/>
<path d="M65.92 58.257H13.798C12.578 58.257 11.408 57.7724 10.5453 56.9097C9.68264 56.047 9.198 54.877 9.198 53.657C9.198 52.437 9.68264 51.267 10.5453 50.4043C11.408 49.5416 12.578 49.057 13.798 49.057H19.93C20.3366 49.057 20.7265 49.2185 21.014 49.506C21.3015 49.7935 21.463 50.1834 21.463 50.59C21.463 50.9966 21.3015 51.3865 21.014 51.674C20.7265 51.9615 20.3366 52.123 19.93 52.123H13.798C13.3914 52.123 13.0015 52.2845 12.714 52.572C12.4265 52.8595 12.265 53.2494 12.265 53.656C12.265 54.0626 12.4265 54.4525 12.714 54.74C13.0015 55.0275 13.3914 55.189 13.798 55.189H65.92C66.3266 55.189 66.7165 55.3505 67.004 55.638C67.2915 55.9255 67.453 56.3154 67.453 56.722C67.453 57.1286 67.2915 57.5185 67.004 57.806C66.7165 58.0935 66.3266 58.255 65.92 58.255V58.257Z" fill="#999999"/>
<path d="M24.528 73.586C23.3152 73.586 22.1296 73.2263 21.1212 72.5525C20.1128 71.8787 19.3269 70.9211 18.8628 69.8006C18.3987 68.6801 18.2772 67.4472 18.5138 66.2577C18.7504 65.0682 19.3344 63.9756 20.192 63.118C21.0496 62.2604 22.1422 61.6764 23.3317 61.4398C24.5212 61.2032 25.7541 61.3246 26.8746 61.7887C27.9951 62.2529 28.9528 63.0388 29.6266 64.0472C30.3004 65.0556 30.66 66.2412 30.66 67.454C30.6584 69.0798 30.0119 70.6386 28.8622 71.7882C27.7126 72.9378 26.1538 73.5844 24.528 73.586ZM24.528 64.386C23.9218 64.3864 23.3293 64.5665 22.8254 64.9035C22.3215 65.2406 21.9288 65.7194 21.697 66.2796C21.4652 66.8397 21.4046 67.456 21.523 68.0506C21.6414 68.6452 21.9333 69.1913 22.362 69.62C22.7907 70.0486 23.3368 70.3406 23.9314 70.459C24.5259 70.5773 25.1422 70.5168 25.7024 70.285C26.2625 70.0532 26.7414 69.6605 27.0785 69.1566C27.4155 68.6527 27.5956 68.0602 27.596 67.454C27.5952 66.6407 27.2717 65.861 26.6964 65.2861C26.1212 64.7113 25.3413 64.3882 24.528 64.388V64.386Z" fill="#999999"/>
<path d="M52.123 73.586C50.9102 73.586 49.7246 73.2263 48.7162 72.5525C47.7078 71.8787 46.9219 70.9211 46.4577 69.8006C45.9936 68.6801 45.8722 67.4472 46.1088 66.2577C46.3454 65.0682 46.9294 63.9756 47.787 63.118C48.6446 62.2604 49.7372 61.6764 50.9267 61.4398C52.1162 61.2032 53.3491 61.3246 54.4696 61.7887C55.5901 62.2529 56.5477 63.0388 57.2215 64.0472C57.8953 65.0556 58.255 66.2412 58.255 67.454C58.2534 69.0798 57.6068 70.6386 56.4572 71.7882C55.3076 72.9378 53.7488 73.5844 52.123 73.586ZM52.123 64.386C51.5167 64.3864 50.9242 64.5665 50.4203 64.9035C49.9164 65.2406 49.5238 65.7194 49.292 66.2796C49.0602 66.8397 48.9996 67.456 49.118 68.0506C49.2363 68.6452 49.5283 69.1913 49.957 69.62C50.3856 70.0486 50.9318 70.3406 51.5263 70.459C52.1209 70.5773 52.7372 70.5168 53.2974 70.285C53.8575 70.0532 54.3364 69.6605 54.6734 69.1566C55.0105 68.6527 55.1906 68.0602 55.191 67.454C55.1902 66.6407 54.8666 65.861 54.2914 65.2861C53.7161 64.7113 52.9362 64.3882 52.123 64.388V64.386Z" fill="#999999"/>
</svg>
