<svg width="68" height="71" viewBox="0 0 68 71" fill="none" xmlns="http://www.w3.org/2000/svg">
<path d="M46.297 23.252C45.6422 23.2528 45.0144 23.5133 44.5513 23.9763C44.0883 24.4394 43.8278 25.0672 43.827 25.722C43.827 28.3455 42.7848 30.8616 40.9297 32.7167C39.0746 34.5718 36.5585 35.614 33.935 35.614C31.3115 35.614 28.7954 34.5718 26.9403 32.7167C25.0852 30.8616 24.043 28.3455 24.043 25.722C24.043 25.0661 23.7825 24.4371 23.3187 23.9733C22.8549 23.5096 22.2259 23.249 21.57 23.249C20.9141 23.249 20.2851 23.5096 19.8213 23.9733C19.3576 24.4371 19.097 25.0661 19.097 25.722C19.097 29.6573 20.6603 33.4314 23.443 36.2141C26.2256 38.9967 29.9997 40.56 33.935 40.56C37.8703 40.56 41.6444 38.9967 44.4271 36.2141C47.2097 33.4314 48.773 29.6573 48.773 25.722C48.7726 25.3973 48.7083 25.0758 48.5836 24.7759C48.459 24.476 48.2765 24.2036 48.0466 23.9742C47.8167 23.7449 47.5438 23.563 47.2436 23.4391C46.9434 23.3152 46.6218 23.2516 46.297 23.252Z" fill="#999999" stroke="white"/>
<path d="M66.718 55.945L60.972 19.627C60.7034 17.8784 59.8159 16.2844 58.4709 15.1351C57.126 13.9858 55.4131 13.3577 53.644 13.365H48.549C47.9688 9.90846 46.1821 6.76948 43.5065 4.50557C40.8309 2.24167 37.4394 0.99939 33.9345 0.99939C30.4296 0.99939 27.0382 2.24167 24.3625 4.50557C21.6869 6.76948 19.9003 9.90846 19.32 13.365H14.226C12.4571 13.3576 10.7443 13.9856 9.39938 15.1347C8.05446 16.2838 7.16683 17.8776 6.89801 19.626L1.15201 55.945C0.872792 57.7105 0.979583 59.5156 1.46503 61.2359C1.95048 62.9562 2.80305 64.5509 3.96402 65.91C5.12499 67.2691 6.56676 68.3605 8.19004 69.1088C9.81332 69.8572 11.5795 70.2448 13.367 70.245H54.502C56.2896 70.245 58.0559 69.8575 59.6793 69.1091C61.3027 68.3608 62.7446 67.2695 63.9057 65.9104C65.0668 64.5512 65.9194 62.9565 66.4049 61.2362C66.8904 59.5158 66.9973 57.7106 66.718 55.945ZM33.936 5.94499C36.1231 5.95162 38.2462 6.68353 39.9728 8.02608C41.6993 9.36862 42.9317 11.246 43.477 13.364H24.394C24.9395 11.2461 26.172 9.36903 27.8985 8.02668C29.6251 6.68433 31.7481 5.95256 33.935 5.94599L33.936 5.94499ZM60.143 62.7C59.447 63.5159 58.5821 64.1709 57.6082 64.6198C56.6342 65.0687 55.5744 65.3008 54.502 65.3H13.367C12.2946 65.2998 11.235 65.0672 10.2611 64.6183C9.28715 64.1693 8.4221 63.5146 7.72547 62.6993C7.02884 61.8839 6.51717 60.9273 6.22569 59.8953C5.93421 58.8632 5.86984 57.7803 6.03701 56.721L11.783 20.4C11.8726 19.8171 12.1686 19.2858 12.6169 18.9028C13.0653 18.5198 13.6363 18.3105 14.226 18.313H53.643C54.2327 18.3105 54.8037 18.5198 55.2521 18.9028C55.7005 19.2858 55.9964 19.8171 56.086 20.4L61.831 56.719C61.9996 57.7787 61.936 58.8624 61.6445 59.8951C61.3531 60.9277 60.8408 61.8848 60.143 62.7Z" fill="#999999" stroke="white"/>
</svg>
