<svg width="53" height="32" viewBox="0 0 53 32" fill="none" xmlns="http://www.w3.org/2000/svg">
<path d="M49.023 11.313H47.766V10.056C47.7647 8.38952 47.1021 6.79168 45.9237 5.6133C44.7453 4.43492 43.1475 3.77232 41.481 3.771H32.681C32.6797 2.77145 32.2821 1.8132 31.5754 1.10631C30.8687 0.39943 29.9106 0.0015874 28.911 0H23.883C22.8833 0.00132291 21.9249 0.399048 21.218 1.10596C20.511 1.81287 20.1133 2.77127 20.112 3.771H11.312C9.64552 3.77232 8.04768 4.43492 6.8693 5.6133C5.69092 6.79168 5.02832 8.38952 5.027 10.056V11.313H3.771C2.77127 11.3143 1.81287 11.712 1.10596 12.419C0.399048 13.1259 0.00132291 14.0843 0 15.084V20.112C0.00132291 21.1117 0.399048 22.0701 1.10596 22.777C1.81287 23.484 2.77127 23.8817 3.771 23.883H5.028V25.14C5.02932 26.8065 5.69192 28.4043 6.8703 29.5827C8.04868 30.7611 9.64652 31.4237 11.313 31.425H18.855C19.8554 31.4237 20.8144 31.0254 21.5215 30.3176C22.2285 29.6098 22.6257 28.6504 22.626 27.65C22.6271 27.3169 22.7598 26.9978 22.9953 26.7623C23.2308 26.5268 23.5499 26.3941 23.883 26.393H28.911C29.2441 26.3941 29.5632 26.5268 29.7987 26.7623C30.0342 26.9978 30.1669 27.3169 30.168 27.65C30.1693 28.6497 30.567 29.6081 31.274 30.315C31.9809 31.0219 32.9393 31.4197 33.939 31.421H41.481C43.1475 31.4197 44.7453 30.7571 45.9237 29.5787C47.1021 28.4003 47.7647 26.8025 47.766 25.136V23.883H49.023C50.0227 23.8817 50.9811 23.484 51.688 22.777C52.395 22.0701 52.7927 21.1117 52.794 20.112V15.084C52.7927 14.0843 52.395 13.1259 51.688 12.419C50.9811 11.712 50.0227 11.3143 49.023 11.313ZM23.883 2.513H28.911C29.2441 2.51405 29.5632 2.64683 29.7987 2.88233C30.0342 3.11784 30.1669 3.43695 30.168 3.77H22.626C22.6273 3.43712 22.7602 3.11827 22.9957 2.88298C23.2312 2.64769 23.5501 2.51505 23.883 2.514V2.513ZM3.771 21.369C3.43795 21.3679 3.11884 21.2352 2.88333 20.9997C2.64783 20.7642 2.51505 20.4451 2.514 20.112V15.084C2.51505 14.7509 2.64783 14.4318 2.88333 14.1963C3.11884 13.9608 3.43795 13.8281 3.771 13.827H5.028V21.369H3.771ZM45.252 25.14C45.2507 26.1397 44.853 27.0981 44.146 27.805C43.4391 28.512 42.4807 28.9097 41.481 28.911H33.939C33.6053 28.9099 33.2855 28.7766 33.0499 28.5402C32.8143 28.3039 32.682 27.9837 32.682 27.65C32.6807 26.6503 32.283 25.6919 31.576 24.985C30.8691 24.278 29.9107 23.8803 28.911 23.879H23.883C22.8833 23.8803 21.9249 24.278 21.218 24.985C20.511 25.6919 20.1133 26.6503 20.112 27.65C20.1109 27.9831 19.9782 28.3022 19.7427 28.5377C19.5072 28.7732 19.1881 28.9059 18.855 28.907H11.313C10.314 28.9057 9.35617 28.5085 8.64937 27.8025C7.94257 27.0964 7.54438 26.139 7.542 25.14V10.056C7.54332 9.05627 7.94105 8.09787 8.64796 7.39096C9.35487 6.68405 10.3133 6.28632 11.313 6.285H41.481C42.4807 6.28632 43.4391 6.68405 44.146 7.39096C44.853 8.09787 45.2507 9.05627 45.252 10.056V25.14ZM50.28 20.112C50.2789 20.4451 50.1462 20.7642 49.9107 20.9997C49.6752 21.2352 49.3561 21.3679 49.023 21.369H47.766V13.827H49.023C49.3561 13.8281 49.6752 13.9608 49.9107 14.1963C50.1462 14.4318 50.2789 14.7509 50.28 15.084V20.112Z" fill="#999999"/>
</svg>
